<svg width="17" height="16" viewBox="0 0 17 16" fill="none" xmlns="http://www.w3.org/2000/svg">
<path fill-rule="evenodd" clip-rule="evenodd" d="M8.74981 14.3996C8.41844 14.3996 8.14981 14.131 8.14981 13.7996L8.14981 3.72753L6.58948 5.40788C6.364 5.65071 5.98436 5.66477 5.74154 5.43929C5.49871 5.2138 5.48465 4.83417 5.71013 4.59134L8.31013 1.79134C8.42366 1.66908 8.58297 1.59961 8.74981 1.59961C8.91665 1.59961 9.07596 1.66908 9.18948 1.79134L11.7895 4.59134C12.015 4.83417 12.0009 5.2138 11.7581 5.43929C11.5153 5.66477 11.1356 5.65071 10.9101 5.40788L9.34981 3.72753L9.34981 13.7996C9.34981 14.131 9.08118 14.3996 8.74981 14.3996Z" fill="#939BAA"/>
</svg>
