<svg width="14" height="14" viewBox="0 0 14 14" fill="none" xmlns="http://www.w3.org/2000/svg">
<path d="M6.99961 2.00039C6.99961 1.11674 6.28326 0.400391 5.39961 0.400391C4.51595 0.400391 3.79961 1.11674 3.79961 2.00039C3.79961 2.88405 4.51595 3.60039 5.39961 3.60039C6.28326 3.60039 6.99961 2.88405 6.99961 2.00039Z" fill="#939BAA"/>
<path d="M12.7996 2.60039C13.131 2.60039 13.3996 2.33176 13.3996 2.00039C13.3996 1.66902 13.131 1.40039 12.7996 1.40039L8.39961 1.40039C8.06824 1.40039 7.79961 1.66902 7.79961 2.00039C7.79961 2.33176 8.06824 2.60039 8.39961 2.60039L12.7996 2.60039Z" fill="#939BAA"/>
<path d="M2.99961 2.00039C2.99961 2.33176 2.73098 2.60039 2.39961 2.60039H1.19961C0.868238 2.60039 0.599609 2.33176 0.599609 2.00039C0.599609 1.66902 0.868239 1.40039 1.19961 1.40039L2.39961 1.40039C2.73098 1.40039 2.99961 1.66902 2.99961 2.00039Z" fill="#939BAA"/>
<path d="M2.39961 12.6004C2.73098 12.6004 2.99961 12.3318 2.99961 12.0004C2.99961 11.669 2.73098 11.4004 2.39961 11.4004H1.19961C0.868239 11.4004 0.599609 11.669 0.599609 12.0004C0.599609 12.3318 0.868238 12.6004 1.19961 12.6004H2.39961Z" fill="#939BAA"/>
<path d="M12.7996 12.6004C13.131 12.6004 13.3996 12.3318 13.3996 12.0004C13.3996 11.669 13.131 11.4004 12.7996 11.4004H8.39961C8.06824 11.4004 7.79961 11.669 7.79961 12.0004C7.79961 12.3318 8.06824 12.6004 8.39961 12.6004H12.7996Z" fill="#939BAA"/>
<path d="M6.19961 7.00039C6.19961 7.33176 5.93098 7.60039 5.59961 7.60039H1.19961C0.868238 7.60039 0.599609 7.33176 0.599609 7.00039C0.599609 6.66902 0.868238 6.40039 1.19961 6.40039L5.59961 6.40039C5.93098 6.40039 6.19961 6.66902 6.19961 7.00039Z" fill="#939BAA"/>
<path d="M12.7996 7.60039C13.131 7.60039 13.3996 7.33176 13.3996 7.00039C13.3996 6.66902 13.131 6.40039 12.7996 6.40039H11.5996C11.2682 6.40039 10.9996 6.66902 10.9996 7.00039C10.9996 7.33176 11.2682 7.60039 11.5996 7.60039H12.7996Z" fill="#939BAA"/>
<path d="M10.1996 7.00039C10.1996 6.11674 9.48326 5.40039 8.59961 5.40039C7.71595 5.40039 6.99961 6.11674 6.99961 7.00039C6.99961 7.88405 7.71595 8.60039 8.59961 8.60039C9.48326 8.60039 10.1996 7.88405 10.1996 7.00039Z" fill="#939BAA"/>
<path d="M6.99961 12.0004C6.99961 11.1167 6.28326 10.4004 5.39961 10.4004C4.51595 10.4004 3.79961 11.1167 3.79961 12.0004C3.79961 12.884 4.51595 13.6004 5.39961 13.6004C6.28326 13.6004 6.99961 12.884 6.99961 12.0004Z" fill="#939BAA"/>
</svg>
